name Walk7.mot
datacolumns 19
datarows 15
range 2.12000000 2.13400000
endheader

                time	   L_ground_force_vx	   L_ground_force_vy	   L_ground_force_vz	   L_ground_force_px	   L_ground_force_py	   L_ground_force_pz	   R_ground_force_vx	   R_ground_force_vy	   R_ground_force_vz	   R_ground_force_px	   R_ground_force_py	   R_ground_force_pz	   L_ground_torque_x	   L_ground_torque_y	   L_ground_torque_z	   R_ground_torque_x	   R_ground_torque_y	   R_ground_torque_z	
          2.12000000	        -10.74232148	         86.45880310	         -1.84838942	         -0.16274645	          0.00000000	         -0.02180684	         -0.00000000	          0.00000000	          0.00000000	          0.00000000	          0.00000000	          0.00000000	          0.00000000	          0.01101670	          0.00000000	          0.00000000	          0.00000000	          0.00000000	
          2.12100000	        -11.85387905	         94.22953919	         -2.12040978	         -0.17214355	          0.00000000	         -0.02304170	         -0.00000000	          0.00000000	          0.00000000	         -0.00000000	          0.00000000	         -0.00000000	          0.00000000	          0.01414280	          0.00000000	          0.00000000	          0.00000000	          0.00000000	
          2.12200000	        -13.01977270	        102.33321177	         -2.40895053	         -0.18170294	          0.00000000	         -0.02429615	         -0.00000000	          0.00000000	          0.00000000	         -0.00000000	          0.00000000	         -0.00000000	          0.00000000	          0.01750099	          0.00000000	          0.00000000	          0.00000000	          0.00000000	
          2.12300000	        -14.24023658	        110.76729154	         -2.71435520	         -0.19140022	          0.00000000	         -0.02556682	         -0.00000000	          0.00000000	          0.00000000	         -0.00000000	          0.00000000	         -0.00000000	          0.00000000	          0.02109896	          0.00000000	          0.00000000	          0.00000000	          0.00000000	
          2.12400000	        -15.51530123	        119.52764961	         -3.03692957	         -0.20120815	          0.00000000	         -0.02684998	         -0.00000000	          0.00000000	          0.00000000	         -0.00000000	          0.00000000	         -0.00000000	          0.00000000	          0.02494413	          0.00000000	          0.00000000	          0.00000000	          0.00000000	
          2.12500000	        -16.84477451	        128.60842592	         -3.37693694	         -0.21109652	          0.00000000	         -0.02814150	         -0.00000000	          0.00000000	          0.00000000	         -0.00000000	          0.00000000	         -0.00000000	          0.00000000	          0.02904360	          0.00000000	          0.00000000	          0.00000000	          0.00000000	
          2.12600000	        -18.22822177	        138.00189257	         -3.73459305	         -0.22103195	          0.00000000	         -0.02943680	         -0.00000000	          0.00000000	         -0.00000000	         -0.00000000	          0.00000000	         -0.00000000	          0.00000000	          0.03340407	          0.00000000	          0.00000000	         -0.00000000	          0.00000000	
          2.12700000	        -19.66495383	        147.69832639	         -4.11006024	         -0.23097824	          0.00000000	         -0.03073097	          0.00000000	          0.00000000	         -0.00000000	         -0.00000000	          0.00000000	         -0.00000000	          0.00000000	          0.03803174	          0.00000000	          0.00000000	         -0.00000000	          0.00000000	
          2.12800000	        -21.15404545	        157.68592914	         -4.50343886	         -0.24089794	          0.00000000	         -0.03201896	          0.00000000	          0.00000000	         -0.00000000	         -0.00000000	          0.00000000	         -0.00000000	          0.00000000	          0.04293217	          0.00000000	          0.00000000	         -0.00000000	          0.00000000	
          2.12900000	        -22.69438954	        167.95081295	         -4.91475486	         -0.25075492	          0.00000000	         -0.03329599	          0.00000000	          0.00000000	         -0.00000000	         -0.00000000	          0.00000000	         -0.00000000	          0.00000000	          0.04811012	          0.00000000	          0.00000000	         -0.00000000	          0.00000000	
          2.13000000	        -24.28476248	        178.47702549	         -5.34394378	         -0.26051592	          0.00000000	         -0.03455775	          0.00000000	         -0.00000000	         -0.00000000	         -0.00000000	          0.00000000	         -0.00000000	          0.00000000	          0.05356973	          0.00000000	          0.00000000	         -0.00000000	          0.00000000	
          2.13100000	        -25.92388384	        189.24660180	         -5.79083124	         -0.27015089	          0.00000000	         -0.03580045	          0.00000000	         -0.00000000	         -0.00000000	         -0.00000000	          0.00000000	         -0.00000000	          0.00000000	          0.05931489	          0.00000000	          0.00000000	         -0.00000000	          0.00000000	
          2.13200000	        -27.61047302	        200.23966349	         -6.25510895	         -0.27963279	          0.00000000	         -0.03702077	          0.00000000	         -0.00000000	         -0.00000000	         -0.00000000	          0.00000000	         -0.00000000	          0.00000000	          0.06534980	          0.00000000	          0.00000000	         -0.00000000	          0.00000000	
          2.13300000	        -29.34330406	        211.43458671	         -6.73630562	         -0.28893749	          0.00000000	         -0.03821581	          0.00000000	         -0.00000000	         -0.00000000	         -0.00000000	          0.00000000	         -0.00000000	          0.00000000	          0.07167959	          0.00000000	          0.00000000	         -0.00000000	          0.00000000	
          2.13400000	        -31.12125313	        222.80825037	         -7.23375336	         -0.29804353	          0.00000000	         -0.03938308	          0.00000000	         -0.00000000	         -0.00000000	         -0.00000000	          0.00000000	         -0.00000000	          0.00000000	          0.07831118	          0.00000000	          0.00000000	         -0.00000000	          0.00000000	
